<?xml version="1.0" encoding="UTF-8"?>
<!-- Generator: visioncortex VTracer 0.6.4 -->
<svg version="1.1" xmlns="http://www.w3.org/2000/svg" width="500" height="500">
<path d="M0 0 C112.86 0 225.72 0 342 0 C342 90.42 342 180.84 342 274 C229.14 274 116.28 274 0 274 C0 183.58 0 93.16 0 0 Z " fill="#000000" transform="translate(79,113)"/>
<path d="M0 0 C29.7 0 59.4 0 90 0 C90 8.91 90 17.82 90 27 C89 28 89 28 86.56394958 28.12025452 C85.48251175 28.11803391 84.40107391 28.11581329 83.28686523 28.11352539 C82.0656749 28.11344986 80.84448456 28.11337433 79.58628845 28.11329651 C78.24372314 28.10818911 76.90115825 28.10297311 75.55859375 28.09765625 C74.19238842 28.09579199 72.82618243 28.09436813 71.4599762 28.09336853 C67.85798305 28.08954394 64.25603 28.07971417 60.65405273 28.06866455 C56.98096255 28.05844916 53.30786591 28.05387064 49.63476562 28.04882812 C42.42315877 28.03809184 35.211585 28.02101614 28 28 C28.00222061 28.56217224 28.00444122 29.12434448 28.00672913 29.70355225 C28.02903072 35.60949054 28.04400922 41.51541667 28.05493164 47.42138672 C28.05992838 49.61898282 28.06672801 51.81657564 28.07543945 54.01416016 C28.08771089 57.19174003 28.09327505 60.36927557 28.09765625 63.546875 C28.10281754 64.5130072 28.10797882 65.4791394 28.11329651 66.47454834 C28.11384972 73.35984892 27.66388445 80.14784302 27 87 C23.851681 87.83877119 21.09877916 88.12869265 17.83203125 88.1328125 C16.36926758 88.13474609 16.36926758 88.13474609 14.87695312 88.13671875 C13.86568359 88.13285156 12.85441406 88.12898438 11.8125 88.125 C10.78962891 88.12886719 9.76675781 88.13273437 8.71289062 88.13671875 C7.74158203 88.13542969 6.77027344 88.13414062 5.76953125 88.1328125 C4.43305542 88.13112061 4.43305542 88.13112061 3.06958008 88.12939453 C1 88 1 88 0 87 C-0.09514722 84.29158206 -0.12553625 81.60884954 -0.11352539 78.90014648 C-0.11370619 77.60642545 -0.11370619 77.60642545 -0.11389065 76.28656864 C-0.11314139 73.48138454 -0.1055126 70.67626604 -0.09765625 67.87109375 C-0.09618687 66.14457227 -0.09516614 64.41805034 -0.09460449 62.69152832 C-0.08935116 56.27351211 -0.07539008 49.85550542 -0.0625 43.4375 C-0.0315625 21.9359375 -0.0315625 21.9359375 0 0 Z " fill="#FAFAFA" transform="translate(178,179)"/>
<path d="M0 0 C8.91 0 17.82 0 27 0 C27.73600814 29.00660661 28.15178172 57.98400445 28 87 C8.94958549 87.91392723 -10.05509625 88.12487379 -29.125 88.0625 C-31.84895686 88.05687755 -34.57291534 88.05283683 -37.296875 88.04882812 C-43.86460393 88.03798894 -50.43229742 88.02140281 -57 88 C-61.1766547 79.64669061 -58 69.33928382 -58 60 C-38.86 60 -19.72 60 0 60 C0 40.2 0 20.4 0 0 Z " fill="#FBFBFB" transform="translate(298,238)"/>
<path d="M0 0 C9.9 0 19.8 0 30 0 C30 9.9 30 19.8 30 30 C20.1 30 10.2 30 0 30 C0 20.1 0 10.2 0 0 Z " fill="#17A7F8" transform="translate(208,268)"/>
<path d="M0 0 C7.1465625 -0.0309375 7.1465625 -0.0309375 14.4375 -0.0625 C15.9423999 -0.071604 17.4472998 -0.08070801 18.99780273 -0.09008789 C20.17286377 -0.09258545 21.3479248 -0.09508301 22.55859375 -0.09765625 C24.37315063 -0.10551147 24.37315063 -0.10551147 26.22436523 -0.11352539 C29 0 29 0 30 1 C30.08775605 3.14558827 30.10695219 5.29404421 30.09765625 7.44140625 C30.09515869 8.61646729 30.09266113 9.79152832 30.09008789 11.00219727 C30.08098389 12.50709717 30.07187988 14.01199707 30.0625 15.5625 C30.041875 20.326875 30.02125 25.09125 30 30 C20.1 30 10.2 30 0 30 C0 20.1 0 10.2 0 0 Z " fill="#17A9FB" transform="translate(268,208)"/>
<path d="M0 0 C9.57 0 19.14 0 29 0 C29 9.9 29 19.8 29 30 C19.43 30 9.86 30 0 30 C0 20.1 0 10.2 0 0 Z " fill="#D1D7F5" transform="translate(179,298)"/>
<path d="M0 0 C9.57 0 19.14 0 29 0 C29 9.9 29 19.8 29 30 C19.43 30 9.86 30 0 30 C0 20.1 0 10.2 0 0 Z " fill="#17A9FB" transform="translate(238,238)"/>
<path d="M0 0 C9.57 0 19.14 0 29 0 C29 9.57 29 19.14 29 29 C19.43 29 9.86 29 0 29 C0 19.43 0 9.86 0 0 Z " fill="#D6DCFB" transform="translate(298,179)"/>
</svg>
